<svg xmlns="http://www.w3.org/2000/svg" xml:space="preserve" viewBox="0 0 176 176">
	<g data-name="Layer 2">
		<rect width="176" height="176" fill="#0077b5" data-original="#0077b5" rx="24" />
		<path fill="#fff"
			d="M63.4 48a15 15 0 1 1-15-15 15 15 0 0 1 15 15zM60 73v66.3a3.7 3.7 0 0 1-3.7 3.7H40.5a3.7 3.7 0 0 1-3.7-3.7V73a3.7 3.7 0 0 1 3.7-3.7h15.8A3.7 3.7 0 0 1 60 73zm82.6 34.5v32a3.4 3.4 0 0 1-3.4 3.5h-17a3.4 3.4 0 0 1-3.4-3.4v-31.1c0-4.7 1.4-20.3-12.1-20.3-10.5 0-12.6 10.7-13 15.5v35.9a3.4 3.4 0 0 1-3.4 3.4H73.9a3.4 3.4 0 0 1-3.4-3.4V72.7a3.4 3.4 0 0 1 3.4-3.4h16.4a3.4 3.4 0 0 1 3.4 3.4v5.8c3.9-5.8 9.6-10.3 22-10.3 27.1 0 27 25.4 27 39.3z"
			data-original="#ffffff" />
	</g>
</svg>