<svg xmlns="http://www.w3.org/2000/svg" xml:space="preserve" viewBox="0 0 176 176">
	<g data-name="Layer 2">
		<rect width="176" height="176" fill="#50abf1" data-original="#50abf1" rx="24" />
		<path fill="#fff"
			d="M142.8 54.7a47.1 47.1 0 0 1-9.4 10.4 4 4 0 0 0-1.6 3.1v.4a66.1 66.1 0 0 1-4.2 23 67.3 67.3 0 0 1-12.5 21A61.4 61.4 0 0 1 88 130.4a68 68 0 0 1-21.3 3.4 65.1 65.1 0 0 1-32.7-8.9 1.9 1.9 0 0 1-.9-2 1.8 1.8 0 0 1 1.8-1.4h2.7a43.7 43.7 0 0 0 24.5-7.5 23.8 23.8 0 0 1-18.8-16.1 1.2 1.2 0 0 1 1.4-1.6 21.6 21.6 0 0 0 4 .4h.5a23.8 23.8 0 0 1-13.8-22 1.3 1.3 0 0 1 1.8-1 21 21 0 0 0 5.4 2.1A23.8 23.8 0 0 1 38.8 47a1.2 1.2 0 0 1 2-.2 62.2 62.2 0 0 0 42.7 22.9h.1a1 1 0 0 0 .7-.3.9.9 0 0 0 .2-.7A25.6 25.6 0 0 1 85 60a22.6 22.6 0 0 1 3-7 23 23 0 0 1 12.5-9.6 25.3 25.3 0 0 1 7.5-1.2 23.7 23.7 0 0 1 15.7 6 3 3 0 0 0 2 .7 3 3 0 0 0 .7 0 43.7 43.7 0 0 0 11.6-4.8 1.3 1.3 0 0 1 1.8 1.4 23.7 23.7 0 0 1-6.2 10 43.9 43.9 0 0 0 7.6-2.6 1.2 1.2 0 0 1 1.5 1.8z"
			data-original="#ffffff" />
	</g>
</svg>
